# xmcd CD database file
# Copyright (C) 1993-2000  Ti Kan
#
# Track frame offsets:
#	900
#	22772
#	40912
#	59837
#	84377
#	102630
#	125645
#	142507
#	171322
#	187735
#	209420
#	222872
#	241067
#	262427
#	276142
#
# Disc length: 3973 seconds
#
# Revision: 6
# Processed by: cddbd v1.5.2PL0 Copyright (c) Steve Scherf et al.
# Submitted via: xmcd 2.6 PL0
#
DISCID=dc0f790f,eb0f740f
DTITLE=Paul Rodgers - Muddy Water Blues
DYEAR=1993
DGENRE=
TTITLE0=Muddy Water Blues [Acoustic Version feat. Buddy Guy]
TTITLE1=Louisiana Blues [feat. Trevor Rabin]
TTITLE2=I Can't Be Satisfied [feat. Brian Setzer]
TTITLE3=Rollin' Stone [feat. Jeff Beck]
TTITLE4=Good Morning Little School Girl (Part 1) [feat. Jeff Beck]
TTITLE5=I'm Your Hoochie Coochie Man [feat. Steve Miller]
TTITLE6=She's Alright [feat. Trevor Rabin]
TTITLE7=Standing Around Crying [feat. David Gilmour]
TTITLE8=The Hunter [feat. Slash]
TTITLE9=She Moves Me [feat. Gary Moore]
TTITLE10=I'm Ready [feat. Brian May]
TTITLE11=I Just Want To Make Love To You [feat. Jeff Beck]
TTITLE12=Born Under A Bad Sign [feat. Neal Schon]
TTITLE13=Good Morning Little School Girl (Part 2) [feat. Richie Sambora]
TTITLE14=Muddy Water Blues [Electric version feat. Neal Schon]
EXTD=\n YEAR: 1993
EXTT0=
EXTT1=
EXTT2=
EXTT3=
EXTT4=
EXTT5=
EXTT6=
EXTT7=
EXTT8=
EXTT9=
EXTT10=
EXTT11=
EXTT12=
EXTT13=
EXTT14=
PLAYORDER=
